<svg width="33" height="32" viewBox="0 0 33 32" fill="none" xmlns="http://www.w3.org/2000/svg">
<path d="M28.5 6C28.5 5.46957 28.2893 4.96086 27.9142 4.58579C27.5391 4.21071 27.0304 4 26.5 4H22.5V2H20.5V4H12.5V2H10.5V4H6.5C5.96957 4 5.46086 4.21071 5.08579 4.58579C4.71071 4.96086 4.5 5.46957 4.5 6V26C4.5 26.5304 4.71071 27.0391 5.08579 27.4142C5.46086 27.7893 5.96957 28 6.5 28H10.5V26H6.5V6H10.5V8H12.5V6H20.5V8H22.5V6H26.5V12H28.5V6Z" fill="white"/>
<path d="M21.5 15L24.049 19.938L29.5 20.729L25.5 24.573L26.5 30L21.5 27.438L16.5 30L17.5 24.573L13.5 20.729L19.1 19.938L21.5 15Z" fill="white"/>
</svg>
