<svg width="64" height="64" viewBox="0 0 64 64" fill="none" xmlns="http://www.w3.org/2000/svg">
<g clip-path="url(#clip0)" filter="url(#filter0_d)">
<path d="M41.7458 26.599C41.1001 24.8749 41.8814 22.9892 43.4911 22.3864L43.5559 22.3621C45.1622 21.7606 46.9874 22.6638 47.6357 24.3836C49.7579 30.0095 49.9562 30.5654 53.0976 38.9787C54.8611 43.7029 52.7184 48.8663 48.3105 50.5169L38.8462 54.061C35.9501 55.1455 32.6508 54.4652 30.225 52.284L15.716 39.2319L16.3237 38.1706C17.5209 35.8091 20.3436 34.9875 22.6561 36.3259L26.0943 38.3166L18.7016 18.5333C18.0574 16.8095 18.839 14.9245 20.4475 14.3222L20.4487 14.3217C22.0583 13.719 23.8865 14.6288 24.5321 16.353L29.0144 28.3228C28.4213 26.6207 29.2037 24.7848 30.7881 24.1915L30.8566 24.1658C32.4663 23.5631 34.2946 24.472 34.9402 26.1962L35.3166 27.2012C34.6708 25.4767 35.4521 23.591 37.0625 22.9879L37.0693 22.9854C38.679 22.3826 40.5071 23.2912 41.1529 25.0158L41.7458 26.599Z" fill="white"/>
<path d="M43.2796 21.63L43.2148 21.6542C42.3333 21.9796 41.6046 22.6214 41.171 23.4547C40.0927 22.1868 38.3522 21.6359 36.7753 22.2264C35.8108 22.5953 35.0367 23.3383 34.6283 24.2871C33.5464 23.271 31.9953 22.8866 30.5747 23.4186L30.5062 23.4443C29.7423 23.7157 29.0916 24.2364 28.6596 24.9227L25.3374 16.0508C24.5335 13.904 22.2078 12.7827 20.1747 13.5441C18.1435 14.3047 17.1348 16.6728 17.9369 18.8182L24.5208 36.4509L23.0691 35.6127C21.7867 34.8516 20.246 34.6579 18.8155 35.0772C17.4156 35.4945 16.2505 36.4724 15.5972 37.7788L14.9993 38.8227C14.8061 39.1592 14.8745 39.585 15.1629 39.8447L29.6752 52.9054C32.3281 55.2916 35.9566 56.0414 39.139 54.8497L48.6034 51.3056C53.4282 49.4989 55.7893 43.8392 53.8706 38.6993C53.0007 36.3693 52.3544 34.6377 51.8326 33.2386C50.4562 29.5481 49.9474 28.1846 48.4126 24.1157C47.6061 21.9758 45.3071 20.8708 43.2796 21.63ZM50.2876 33.8099C50.8094 35.2089 51.4568 36.9449 52.3268 39.2749C53.928 43.5646 52.0003 48.2734 48.0257 49.7617L38.5613 53.3058C35.956 54.2814 32.9714 53.6534 30.7771 51.6797L16.7609 39.0685L17.0372 38.5823C17.0438 38.5704 17.0504 38.5568 17.0569 38.5444C17.5049 37.6336 18.3112 36.9502 19.2832 36.6576C20.2793 36.3687 21.3509 36.5074 22.2413 37.0394L25.6793 39.0298C25.9805 39.2043 26.3583 39.1707 26.6243 38.9461C26.8898 38.7212 26.9856 38.3542 26.8639 38.0282L19.4712 18.2449C18.987 16.9495 19.5715 15.5293 20.7532 15.0868C21.935 14.6442 23.309 15.3324 23.7944 16.6286L28.2741 28.5917C28.285 28.6207 28.2938 28.65 28.3048 28.6794C28.3095 28.6919 28.316 28.7036 28.3207 28.716L30.2365 33.8321C30.396 34.2581 30.8708 34.4742 31.2969 34.3147C31.7229 34.1551 31.939 33.6803 31.7795 33.2543L29.8248 28.0342C29.3533 26.7753 29.9335 25.4181 31.084 24.9873L31.1525 24.9616C32.3343 24.5191 33.7044 25.1808 34.1897 26.4766L35.9367 31.1421C36.0964 31.5686 36.5711 31.7843 36.9971 31.6247C37.4232 31.4652 37.6394 30.9908 37.4797 30.5643L36.109 26.9039C35.6237 25.608 36.1654 24.2029 37.3543 23.7577C38.536 23.3152 39.867 24.0191 40.3522 25.3149L41.6453 28.7682C41.8049 29.1943 42.2797 29.4103 42.7057 29.2508C43.1318 29.0913 43.3479 28.6165 43.1883 28.1904L42.4881 26.3204C42.0028 25.0246 42.6109 23.6397 43.7926 23.1972L43.8574 23.1729C45.0358 22.7317 46.3834 23.4031 46.8704 24.6945C48.4042 28.7607 48.9116 30.1214 50.2876 33.8099Z" fill="#083863"/>
<path d="M15.613 20.0724C16.039 19.9128 16.2551 19.438 16.0956 19.012C14.9898 16.059 16.487 12.7691 19.44 11.6633C22.3927 10.5576 25.6826 12.0549 26.7884 15.0079C26.9479 15.434 27.4227 15.65 27.8488 15.4905C28.2752 15.3308 28.4909 14.8562 28.3314 14.4301C26.9065 10.625 22.667 8.69555 18.8622 10.1203C15.0571 11.5452 13.1277 15.7847 14.5526 19.5898C14.7121 20.0158 15.1869 20.2319 15.613 20.0724Z" fill="#083863"/>
</g>
<defs>
<filter id="filter0_d" x="-4" y="0" width="71.0717" height="71.0717" filterUnits="userSpaceOnUse" color-interpolation-filters="sRGB">
<feFlood flood-opacity="0" result="BackgroundImageFix"/>
<feColorMatrix in="SourceAlpha" type="matrix" values="0 0 0 0 0 0 0 0 0 0 0 0 0 0 0 0 0 0 127 0"/>
<feOffset dy="4"/>
<feGaussianBlur stdDeviation="2"/>
<feColorMatrix type="matrix" values="0 0 0 0 0 0 0 0 0 0 0 0 0 0 0 0 0 0 0.25 0"/>
<feBlend mode="normal" in2="BackgroundImageFix" result="effect1_dropShadow"/>
<feBlend mode="normal" in="SourceGraphic" in2="effect1_dropShadow" result="shape"/>
</filter>
<clipPath id="clip0">
<rect width="49" height="49" fill="white" transform="translate(0 17.1836) rotate(-20.5292)"/>
</clipPath>
</defs>
</svg>
