<svg width="40" height="40" viewBox="0 0 40 40" fill="none" xmlns="http://www.w3.org/2000/svg">
<mask id="path-2-inside-1" fill="white">
<path fill-rule="evenodd" clip-rule="evenodd" d="M13.0062 8.31317C12.371 8.31329 11.8798 8.81003 11.8787 9.39264L11.8376 29.9473C11.8364 30.5299 12.3257 31.0265 12.9609 31.0265L16.0009 31.0261C16.4637 31.0261 16.8925 30.7836 17.1214 30.3809L17.1214 30.3809C17.1667 30.3011 17.2122 30.2211 17.2584 30.1407C17.47 29.7717 17.6934 29.3972 17.9512 29.0671C18.4849 28.3839 19.1881 27.8671 20.2818 27.867C21.3785 27.8668 22.0662 28.3866 22.5891 29.0697C22.8407 29.3983 23.0607 29.7722 23.2716 30.1379L23.3402 30.257C23.6178 30.7395 24.1343 31.0252 24.6913 31.0251L27.5901 31.0248C28.2253 31.0247 28.7166 30.528 28.7177 29.9454L28.7588 9.39073C28.7599 8.8081 28.2707 8.31145 27.6355 8.31152L24.8487 8.31184C24.2286 8.31191 23.6514 8.62654 23.3388 9.16274L23.2955 9.23715C23.082 9.60297 22.8618 9.97592 22.6118 10.3022C22.3592 10.6321 22.061 10.9352 21.6782 11.1537C21.2905 11.375 20.8427 11.4942 20.3145 11.4943C19.2261 11.4944 18.5147 10.9904 17.9758 10.3088C17.7152 9.9791 17.4914 9.60458 17.2814 9.23112C17.2088 9.10195 17.1386 8.97443 17.0688 8.84757C16.8863 8.51597 16.5371 8.31343 16.1583 8.31341L13.0063 8.31317H13.0062ZM17.6611 7.85457C17.5853 7.72177 17.5342 7.5698 17.4266 7.46119C17.3329 7.36665 17.2053 7.31349 17.0721 7.31348L13.0084 7.31317L13.0083 7.31317C11.8481 7.3133 10.881 8.23089 10.8787 9.39275L10.8376 29.9474C10.8353 31.1092 11.7987 32.0266 12.9589 32.0265L17.0226 32.026C17.1933 32.026 17.3524 31.9388 17.4446 31.7949C17.6455 31.4808 17.8279 31.1599 17.9972 30.862L17.9973 30.8618L17.998 30.8606C18.0413 30.7843 18.0838 30.7096 18.1256 30.6368C18.3357 30.2705 18.5288 29.9506 18.7389 29.6816C19.1409 29.1669 19.5781 28.867 20.2798 28.867C20.9786 28.8669 21.4004 29.1637 21.7946 29.6786C22.0015 29.9489 22.192 30.2694 22.4051 30.6388L22.4734 30.7575L22.4734 30.7575C22.6633 31.0878 22.8711 31.4491 23.1103 31.8049C23.203 31.9427 23.3582 32.0253 23.5244 32.0253L27.5881 32.0248C28.7483 32.0247 29.7154 31.1071 29.7177 29.9452L29.7588 9.39062C29.7611 8.22876 28.7977 7.31139 27.6375 7.31152L23.5722 7.31198C23.4335 7.312 23.301 7.3696 23.2062 7.47102C23.1166 7.5669 23.0654 7.69253 22.9941 7.80268C22.8036 8.09688 22.6346 8.38699 22.4783 8.65508L22.4783 8.6551L22.432 8.73456C22.2147 9.10704 22.0243 9.42647 21.8184 9.69521C21.6153 9.96037 21.4125 10.155 21.1839 10.2855C20.9602 10.4132 20.6861 10.4942 20.3165 10.4943C19.6095 10.4943 19.1632 10.1966 18.7608 9.68762C18.5509 9.42206 18.3582 9.10413 18.1533 8.73962C18.0898 8.62667 18.0242 8.50755 17.9566 8.38482C17.8619 8.21283 17.7633 8.03374 17.6611 7.85457ZM14.9291 14.1561C14.9297 13.8799 15.1541 13.6561 15.4302 13.6561L18.6831 13.6561C18.9592 13.6561 19.1826 13.8799 19.1819 14.1561C19.1813 14.4322 18.9569 14.6561 18.6808 14.6561L15.4279 14.6561C15.1518 14.6561 14.9285 14.4322 14.9291 14.1561ZM21.9354 13.6553C21.6593 13.6553 21.4349 13.8792 21.4343 14.1553C21.4336 14.4315 21.657 14.6553 21.9331 14.6553L25.186 14.6553C25.4621 14.6553 25.6865 14.4315 25.6871 14.1553C25.6877 13.8792 25.4644 13.6553 25.1883 13.6553L21.9354 13.6553ZM14.9082 25.2073C14.9088 24.9312 15.1332 24.7073 15.4093 24.7073L18.6622 24.7073C18.9383 24.7073 19.1617 24.9312 19.161 25.2073C19.1604 25.4835 18.936 25.7073 18.6599 25.7073L15.4071 25.7073C15.1309 25.7073 14.9076 25.4835 14.9082 25.2073ZM21.915 24.7066C21.6389 24.7066 21.4145 24.9305 21.4139 25.2066C21.4132 25.4827 21.6366 25.7066 21.9127 25.7066L25.1656 25.7066C25.4417 25.7066 25.6661 25.4827 25.6667 25.2066C25.6674 24.9305 25.444 24.7066 25.1679 24.7066H21.915Z"/>
</mask>
<path d="M11.8787 9.39264L12.8787 9.39281L11.8787 9.39264ZM13.0062 8.31317L13.008 7.31317L13.0078 7.31317L13.0062 8.31317ZM11.8376 29.9473L10.8376 29.9471L10.8376 29.9471L11.8376 29.9473ZM12.9609 31.0265L12.9592 32.0265H12.9592L12.9609 31.0265ZM17.1214 30.3809L16.2522 29.8879L16.2461 29.899L17.1214 30.3809ZM17.2584 30.1407L16.3911 29.6444L16.3911 29.6444L17.2584 30.1407ZM17.9512 29.0671L18.7389 29.6818L18.7389 29.6818L17.9512 29.0671ZM20.2818 27.867L20.2835 26.867H20.2835L20.2818 27.867ZM22.5891 29.0697L21.7947 29.6785H21.7947L22.5891 29.0697ZM23.2716 30.1379L24.1384 29.6377L24.1381 29.6372L23.2716 30.1379ZM27.5901 31.0248L27.5884 32.0248H27.5884L27.5901 31.0248ZM28.7177 29.9454L29.7177 29.9455L28.7177 29.9454ZM28.7588 9.39073L27.7588 9.39056L27.7588 9.39056L28.7588 9.39073ZM27.6355 8.31152L27.6338 9.31152L27.6355 8.31152ZM23.2955 9.23715L24.159 9.73992L24.1591 9.73969L23.2955 9.23715ZM22.6118 10.3022L23.4053 10.9094L23.4053 10.9094L22.6118 10.3022ZM21.6782 11.1537L21.1837 10.2854L21.1837 10.2854L21.6782 11.1537ZM20.3145 11.4943L20.3162 10.4943L20.3145 11.4943ZM17.9758 10.3088L17.1909 10.9298L17.1909 10.9298L17.9758 10.3088ZM17.2814 9.23112L18.1533 8.73981L18.1533 8.73981L17.2814 9.23112ZM13.0063 8.31317L13.0082 7.31317H13.0081L13.0063 8.31317ZM17.0721 7.31348L17.0702 8.31347L17.0721 7.31348ZM13.0084 7.31317L13.0103 6.31317H13.0101L13.0084 7.31317ZM13.0083 7.31317L13.0066 8.31317H13.0066L13.0083 7.31317ZM10.8787 9.39275L11.8787 9.39292L10.8787 9.39275ZM10.8376 29.9474L9.8376 29.9472L10.8376 29.9474ZM12.9589 32.0265L12.9572 33.0265H12.9572L12.9589 32.0265ZM17.0226 32.026L17.0243 31.026H17.0243L17.0226 32.026ZM17.4446 31.7949L18.2866 32.3328L18.2866 32.3328L17.4446 31.7949ZM17.9972 30.862L18.8664 31.3549L18.8672 31.3534L17.9972 30.862ZM17.9973 30.8618L17.1281 30.3689L17.1273 30.3703L17.9973 30.8618ZM17.998 30.8606L17.1288 30.3677L17.1288 30.3678L17.998 30.8606ZM18.1256 30.6368L18.9928 31.1331L18.9928 31.1331L18.1256 30.6368ZM18.7389 29.6816L17.9512 29.067L17.9512 29.067L18.7389 29.6816ZM20.2798 28.867L20.2815 27.867H20.2815L20.2798 28.867ZM21.7946 29.6786L21.0002 30.2874L21.0002 30.2874L21.7946 29.6786ZM22.4051 30.6388L23.272 30.1388L23.2716 30.1381L22.4051 30.6388ZM22.4734 30.7575L21.6065 31.2575L21.6106 31.2648L21.6149 31.272L22.4734 30.7575ZM22.4734 30.7575L23.3405 30.2578L23.3362 30.2504L23.3318 30.243L22.4734 30.7575ZM23.1103 31.8049L22.2802 32.3639L22.2802 32.3639L23.1103 31.8049ZM23.5244 32.0253L23.5262 31.0253H23.5261L23.5244 32.0253ZM27.5881 32.0248L27.5864 33.0248L27.5881 32.0248ZM29.7177 29.9452L28.7177 29.9451L28.7177 29.9451L29.7177 29.9452ZM29.7588 9.39062L30.7588 9.39079L30.7588 9.39079L29.7588 9.39062ZM27.6375 7.31152L27.6392 6.31153L27.6375 7.31152ZM23.5722 7.31198L23.5705 8.31198L23.5722 7.31198ZM22.4783 8.65508L23.3094 9.20978L23.3265 9.18409L23.3421 9.15739L22.4783 8.65508ZM22.4783 8.6551L21.6473 8.1004L21.6302 8.12601L21.6146 8.15263L22.4783 8.6551ZM22.432 8.73456L23.2955 9.23733L23.2957 9.23702L22.432 8.73456ZM21.8184 9.69521L21.025 9.08805L21.025 9.08805L21.8184 9.69521ZM21.1839 10.2855L20.6894 9.41722L20.6894 9.41722L21.1839 10.2855ZM20.3165 10.4943L20.3182 9.49427L20.3165 10.4943ZM18.7608 9.68762L19.5457 9.06657L19.5457 9.06657L18.7608 9.68762ZM18.1533 8.73962L17.2814 9.23093L17.2814 9.23093L18.1533 8.73962ZM17.9566 8.38482L18.8329 7.9013L17.9566 8.38482ZM15.4302 13.6561L15.4284 14.6561L15.4302 13.6561ZM14.9291 14.1561L13.9291 14.1556L14.9291 14.1561ZM18.6831 13.6561L18.6849 12.6561L18.6831 13.6561ZM19.1819 14.1561L18.1819 14.1556L19.1819 14.1561ZM18.6808 14.6561L18.6826 13.6561L18.6808 14.6561ZM15.4279 14.6561L15.4261 15.6561L15.4279 14.6561ZM21.4343 14.1553L22.4343 14.1558L21.4343 14.1553ZM21.9354 13.6553L21.9372 12.6553L21.9354 13.6553ZM21.9331 14.6553L21.935 13.6553L21.9331 14.6553ZM25.186 14.6553L25.1841 15.6553L25.186 14.6553ZM25.1883 13.6553L25.1864 14.6553L25.1883 13.6553ZM15.4093 24.7073L15.4075 25.7073H15.4075L15.4093 24.7073ZM18.6622 24.7073L18.664 23.7073H18.664L18.6622 24.7073ZM19.161 25.2073L20.161 25.2078L20.161 25.2078L19.161 25.2073ZM18.6599 25.7073L18.6617 24.7073H18.6617L18.6599 25.7073ZM15.4071 25.7073L15.4052 26.7073H15.4052L15.4071 25.7073ZM21.9127 25.7066L21.9109 26.7066H21.9109L21.9127 25.7066ZM25.1656 25.7066L25.1674 24.7066H25.1674L25.1656 25.7066ZM25.6667 25.2066L24.6667 25.2061L25.6667 25.2066ZM17.6611 7.85457L16.7924 8.35152L17.6611 7.85457ZM16.1583 8.31341L16.1564 9.3134L16.1583 8.31341ZM22.9941 7.80268L23.8332 8.34502L22.9941 7.80268ZM24.6913 31.0251L24.6896 32.0251L24.6913 31.0251ZM16.0009 31.0261L16.0026 30.0261L16.0009 31.0261ZM12.8787 9.39281C12.8787 9.38561 12.8979 9.31319 13.0046 9.31317L13.0078 7.31317C11.844 7.31339 10.881 8.23446 10.8787 9.39246L12.8787 9.39281ZM12.8376 29.9474L12.8787 9.39281L10.8787 9.39246L10.8376 29.9471L12.8376 29.9474ZM12.9626 30.0265C12.8562 30.0265 12.8376 29.9544 12.8376 29.9474L10.8376 29.9471C10.8353 31.1054 11.7951 32.0266 12.9592 32.0265L12.9626 30.0265ZM16.0026 30.0261L12.9626 30.0265L12.9592 32.0265L15.9992 32.0261L16.0026 30.0261ZM16.2461 29.899L16.246 29.899L17.9967 30.8629L17.9967 30.8628L16.2461 29.899ZM16.3911 29.6444C16.3439 29.7267 16.2975 29.8084 16.2523 29.8879L17.9905 30.8739C18.036 30.7938 18.0806 30.7154 18.1256 30.637L16.3911 29.6444ZM17.1636 28.4525C16.8581 28.8436 16.6044 29.2725 16.3911 29.6444L18.1256 30.637C18.3356 30.2708 18.5288 29.9508 18.7389 29.6818L17.1636 28.4525ZM20.2835 26.867C18.7968 26.8671 17.8279 27.6019 17.1635 28.4525L18.7389 29.6818C19.1418 29.1659 19.5794 28.867 20.2801 28.867L20.2835 26.867ZM23.3836 28.4609C22.7327 27.6107 21.7793 26.8668 20.2835 26.867L20.2801 28.867C20.9777 28.8669 21.3997 29.1626 21.7947 29.6785L23.3836 28.4609ZM24.1381 29.6372C23.9292 29.2749 23.6798 28.8479 23.3836 28.4609L21.7947 29.6785C22.0017 29.9488 22.1922 30.2694 22.4051 30.6386L24.1381 29.6372ZM24.207 29.7569L24.1384 29.6377L22.4048 30.6381L22.4734 30.7572L24.207 29.7569ZM27.5918 30.0248L24.693 30.0251L24.6896 32.0251L27.5884 32.0248L27.5918 30.0248ZM27.7177 29.9452C27.7177 29.9524 27.6984 30.0248 27.5918 30.0248L27.5884 32.0248C28.7523 32.0247 29.7154 31.1036 29.7177 29.9455L27.7177 29.9452ZM27.7588 9.39056L27.7177 29.9452L29.7177 29.9455L29.7588 9.39091L27.7588 9.39056ZM27.6338 9.31152C27.7402 9.31151 27.7588 9.38361 27.7588 9.39056L29.7588 9.39091C29.7611 8.2326 28.8013 7.31139 27.6372 7.31152L27.6338 9.31152ZM24.847 9.31183L27.6338 9.31152L27.6372 7.31152L24.8504 7.31184L24.847 9.31183ZM24.1591 9.73969L24.2025 9.66528L22.4752 8.6602L22.4318 8.73461L24.1591 9.73969ZM23.4053 10.9094C23.6992 10.5256 23.9492 10.0994 24.159 9.73992L22.432 8.73437C22.2148 9.10656 22.0243 9.42621 21.8184 9.69507L23.4053 10.9094ZM22.1727 12.022C22.7096 11.7156 23.1031 11.304 23.4053 10.9094L21.8184 9.69507C21.6153 9.96025 21.4124 10.1549 21.1837 10.2854L22.1727 12.022ZM20.3128 12.4943C20.9995 12.4942 21.6209 12.3369 22.1727 12.022L21.1837 10.2854C20.96 10.4131 20.6859 10.4942 20.3162 10.4943L20.3128 12.4943ZM17.1909 10.9298C17.8656 11.7832 18.842 12.4944 20.3128 12.4943L20.3162 10.4943C19.6102 10.4943 19.1637 10.1975 18.7607 9.68775L17.1909 10.9298ZM16.4095 9.72243C16.6246 10.105 16.8796 10.536 17.1909 10.9298L18.7607 9.68775C18.5508 9.42216 18.3581 9.10417 18.1533 8.73981L16.4095 9.72243ZM16.1925 9.33094C16.2619 9.4572 16.3343 9.58866 16.4095 9.72243L18.1533 8.73981C18.0832 8.61524 18.0152 8.49166 17.9451 8.3642L16.1925 9.33094ZM13.0044 9.31317L16.1564 9.3134L16.1602 7.31341L13.0082 7.31317L13.0044 9.31317ZM13.0044 9.31317H13.0045L13.0081 7.31317H13.008L13.0044 9.31317ZM17.0702 8.31347C16.937 8.31346 16.8093 8.26029 16.7156 8.16566L18.1376 6.75671C17.8565 6.47302 17.4737 6.31351 17.074 6.31348L17.0702 8.31347ZM13.0065 8.31317L17.0702 8.31347L17.074 6.31348L13.0103 6.31317L13.0065 8.31317ZM13.0066 8.31317L13.0067 8.31317L13.0101 6.31317H13.01L13.0066 8.31317ZM11.8787 9.39292C11.8798 8.81209 12.3692 8.31324 13.0066 8.31317L13.01 6.31317C11.3269 6.31336 9.88214 7.6497 9.87866 9.39258L11.8787 9.39292ZM11.8376 29.9475L11.8787 9.39292L9.87866 9.39258L9.8376 29.9472L11.8376 29.9475ZM12.9606 31.0265C12.3235 31.0265 11.8364 30.5281 11.8376 29.9475L9.8376 29.9472C9.83412 31.6903 11.2739 33.0267 12.9572 33.0265L12.9606 31.0265ZM17.0243 31.026L12.9606 31.0265L12.9572 33.0265L17.0209 33.026L17.0243 31.026ZM16.6025 31.257C16.6946 31.1132 16.8536 31.026 17.0243 31.026L17.0209 33.026C17.5331 33.026 18.0103 32.7645 18.2866 32.3328L16.6025 31.257ZM17.128 30.3691C16.9568 30.6703 16.7871 30.9686 16.6025 31.257L18.2866 32.3328C18.504 31.993 18.6989 31.6496 18.8664 31.3549L17.128 30.3691ZM17.1273 30.3703L17.1272 30.3705L18.8672 31.3534L18.8673 31.3532L17.1273 30.3703ZM17.1288 30.3678L17.1281 30.3689L18.8665 31.3546L18.8672 31.3535L17.1288 30.3678ZM17.2583 30.1405C17.2154 30.2153 17.1719 30.2918 17.1288 30.3677L18.8672 31.3535C18.9107 31.2769 18.9522 31.2039 18.9928 31.1331L17.2583 30.1405ZM17.9512 29.067C17.6933 29.3971 17.4698 29.7717 17.2583 30.1405L18.9928 31.1331C19.2015 30.7693 19.3643 30.504 19.5266 30.2963L17.9512 29.067ZM20.2815 27.867C19.7781 27.867 19.3208 27.9773 18.9073 28.2103C18.5051 28.4369 18.2 28.7484 17.9512 29.067L19.5266 30.2963C19.6798 30.1001 19.7943 30.0043 19.8866 29.9523C19.9677 29.9066 20.0798 29.867 20.2781 29.867L20.2815 27.867ZM22.5891 29.0698C22.3469 28.7535 22.0483 28.4399 21.6494 28.2115C21.2381 27.9762 20.7828 27.8669 20.2815 27.867L20.2781 29.867C20.4755 29.8669 20.5806 29.9061 20.6535 29.9478C20.7387 29.9966 20.8481 30.0888 21.0002 30.2874L22.5891 29.0698ZM23.2716 30.1381C23.0608 29.7726 22.8408 29.3986 22.5891 29.0698L21.0002 30.2874C21.1623 30.4992 21.3232 30.7661 21.5386 31.1396L23.2716 30.1381ZM23.3403 30.2574L23.272 30.1388L21.5382 31.1389L21.6065 31.2575L23.3403 30.2574ZM23.3318 30.243L23.3318 30.243L21.6149 31.272L21.615 31.272L23.3318 30.243ZM23.9405 31.2458C23.7237 30.9235 23.5326 30.5918 23.3405 30.2578L21.6063 31.2573C21.7941 31.5837 22.0185 31.9747 22.2802 32.3639L23.9405 31.2458ZM23.5261 31.0253C23.6924 31.0253 23.8477 31.1079 23.9405 31.2458L22.2802 32.3639C22.5583 32.7775 23.024 33.0253 23.5227 33.0253L23.5261 31.0253ZM27.5898 31.0248L23.5262 31.0253L23.5227 33.0253L27.5864 33.0248L27.5898 31.0248ZM28.7177 29.9451C28.7166 30.5259 28.2271 31.0247 27.5898 31.0248L27.5864 33.0248C29.2695 33.0246 30.7142 31.6883 30.7177 29.9454L28.7177 29.9451ZM28.7588 9.39045L28.7177 29.9451L30.7177 29.9454L30.7588 9.39079L28.7588 9.39045ZM27.6358 8.31152C28.2729 8.31145 28.7599 8.80986 28.7588 9.39045L30.7588 9.39079C30.7623 7.64767 29.3225 6.31134 27.6392 6.31153L27.6358 8.31152ZM23.5705 8.31198L27.6358 8.31152L27.6392 6.31153L23.5739 6.31198L23.5705 8.31198ZM23.9363 8.15305C23.8416 8.25438 23.7091 8.31196 23.5705 8.31198L23.5739 6.31198C23.1579 6.31203 22.7603 6.48482 22.4761 6.78899L23.9363 8.15305ZM23.3421 9.15739C23.4997 8.88696 23.6575 8.61655 23.8332 8.34502L22.1549 7.26034C21.9498 7.5772 21.7694 7.88702 21.6146 8.15277L23.3421 9.15739ZM23.3094 9.2098L23.3094 9.20978L21.6473 8.10038L21.6473 8.1004L23.3094 9.2098ZM23.2957 9.23702L23.342 9.15756L21.6146 8.15263L21.5683 8.23209L23.2957 9.23702ZM22.6119 10.3024C22.8619 9.97598 23.0822 9.60284 23.2955 9.23733L21.5685 8.23179C21.3471 8.61123 21.1867 8.87695 21.025 9.08805L22.6119 10.3024ZM21.6784 11.1538C22.0611 10.9353 22.3592 10.6322 22.6119 10.3024L21.025 9.08805C20.8714 9.2885 20.764 9.37464 20.6894 9.41722L21.6784 11.1538ZM20.3148 11.4943C20.8431 11.4942 21.2908 11.375 21.6784 11.1537L20.6894 9.41722C20.6536 9.43767 20.613 9.45519 20.5605 9.46852C20.5067 9.48217 20.4292 9.49426 20.3182 9.49427L20.3148 11.4943ZM17.9759 10.3087C18.2277 10.6271 18.5361 10.9347 18.9402 11.1576C19.354 11.3859 19.8115 11.4943 20.3148 11.4943L20.3182 9.49427C20.1145 9.49429 19.9954 9.45386 19.9087 9.40602C19.8122 9.35282 19.6963 9.25704 19.5457 9.06657L17.9759 10.3087ZM17.2814 9.23093C17.4913 9.60423 17.7152 9.97886 17.9759 10.3087L19.5457 9.06657C19.3866 8.86525 19.2252 8.60404 19.0252 8.24831L17.2814 9.23093ZM17.0804 8.86834C17.1475 8.99026 17.2153 9.11339 17.2814 9.23093L19.0252 8.24831C18.9643 8.13995 18.9009 8.02485 18.8329 7.9013L17.0804 8.86834ZM16.7924 8.35152C16.8902 8.52293 16.9852 8.69534 17.0804 8.86834L18.8329 7.9013C18.7387 7.73032 18.6365 7.54455 18.5297 7.35761L16.7924 8.35152ZM15.432 12.6561C14.6038 12.6561 13.931 13.3274 13.9291 14.1556L15.9291 14.1565C15.9285 14.4325 15.7044 14.6561 15.4284 14.6561L15.432 12.6561ZM18.6849 12.6561L15.432 12.6561L15.4284 14.6561L18.6812 14.6561L18.6849 12.6561ZM20.1819 14.1565C20.1838 13.3279 19.5135 12.6561 18.6849 12.6561L18.6812 14.6561C18.4049 14.6561 18.1813 14.4319 18.1819 14.1556L20.1819 14.1565ZM18.679 15.6561C19.5072 15.6561 20.18 14.9848 20.1819 14.1565L18.1819 14.1556C18.1826 13.8797 18.4067 13.6561 18.6826 13.6561L18.679 15.6561ZM15.4261 15.6561L18.679 15.6561L18.6826 13.6561L15.4298 13.6561L15.4261 15.6561ZM13.9291 14.1556C13.9272 14.9842 14.5975 15.6561 15.4261 15.6561L15.4298 13.6561C15.7061 13.6561 15.9297 13.8802 15.9291 14.1565L13.9291 14.1556ZM22.4343 14.1558C22.4336 14.4318 22.2095 14.6553 21.9336 14.6553L21.9372 12.6553C21.109 12.6553 20.4362 13.3266 20.4343 14.1549L22.4343 14.1558ZM21.935 13.6553C22.2113 13.6553 22.4349 13.8795 22.4343 14.1558L20.4343 14.1549C20.4324 14.9835 21.1027 15.6553 21.9313 15.6553L21.935 13.6553ZM25.1878 13.6553L21.935 13.6553L21.9313 15.6553H25.1841L25.1878 13.6553ZM24.6871 14.1549C24.6877 13.8789 24.9118 13.6553 25.1878 13.6553L25.1841 15.6553C26.0124 15.6553 26.6852 14.984 26.6871 14.1558L24.6871 14.1549ZM25.1864 14.6553C24.9101 14.6553 24.6865 14.4312 24.6871 14.1549L26.6871 14.1558C26.689 13.3272 26.0187 12.6553 25.1901 12.6553L25.1864 14.6553ZM21.9336 14.6553L25.1864 14.6553L25.1901 12.6553L21.9372 12.6553L21.9336 14.6553ZM15.4112 23.7073C14.5829 23.7073 13.9101 24.3786 13.9082 25.2069L15.9082 25.2078C15.9076 25.4838 15.6835 25.7073 15.4075 25.7073L15.4112 23.7073ZM18.664 23.7073L15.4112 23.7073L15.4075 25.7073L18.6604 25.7073L18.664 23.7073ZM20.161 25.2078C20.1629 24.3792 19.4926 23.7073 18.664 23.7073L18.6604 25.7073C18.384 25.7073 18.1604 25.4832 18.161 25.2069L20.161 25.2078ZM18.6581 26.7073C19.4863 26.7073 20.1592 26.036 20.161 25.2078L18.161 25.2069C18.1617 24.9309 18.3858 24.7073 18.6617 24.7073L18.6581 26.7073ZM15.4052 26.7073L18.6581 26.7073L18.6617 24.7073L15.4089 24.7073L15.4052 26.7073ZM13.9082 25.2069C13.9063 26.0355 14.5766 26.7073 15.4052 26.7073L15.4089 24.7073C15.6852 24.7073 15.9088 24.9315 15.9082 25.2078L13.9082 25.2069ZM22.4139 25.2071C22.4132 25.483 22.1892 25.7066 21.9132 25.7066L21.9168 23.7066C21.0886 23.7066 20.4158 24.3779 20.4139 25.2061L22.4139 25.2071ZM21.9146 24.7066C22.1909 24.7066 22.4145 24.9307 22.4139 25.2071L20.4139 25.2061C20.412 26.0347 21.0823 26.7066 21.9109 26.7066L21.9146 24.7066ZM25.1674 24.7066L21.9146 24.7066L21.9109 26.7066L25.1638 26.7066L25.1674 24.7066ZM24.6667 25.2061C24.6674 24.9302 24.8914 24.7066 25.1674 24.7066L25.1638 26.7066C25.992 26.7066 26.6648 26.0353 26.6667 25.2071L24.6667 25.2061ZM25.166 25.7066C24.8897 25.7066 24.6661 25.4825 24.6667 25.2061L26.6667 25.2071C26.6686 24.3785 25.9983 23.7066 25.1697 23.7066L25.166 25.7066ZM21.9132 25.7066H25.166L25.1697 23.7066H21.9168L21.9132 25.7066ZM16.7156 8.16566C16.6648 8.11441 16.6497 8.07583 16.6697 8.11395C16.6805 8.13462 16.6887 8.15172 16.7111 8.19714C16.7298 8.23481 16.758 8.29129 16.7924 8.35152L18.5297 7.35761C18.4943 7.29557 18.5259 7.34415 18.4418 7.18367C18.3904 7.08545 18.296 6.91657 18.1376 6.75671L16.7156 8.16566ZM17.9451 8.3642C17.5839 7.70789 16.8962 7.31346 16.1602 7.31341L16.1564 9.3134C16.178 9.31341 16.1887 9.32404 16.1925 9.33094L17.9451 8.3642ZM24.8504 7.31184C23.8935 7.31195 22.9768 7.79967 22.4751 8.66031L24.2025 9.66517C24.326 9.45341 24.5636 9.31187 24.847 9.31183L24.8504 7.31184ZM22.4761 6.78899C22.3514 6.92248 22.2705 7.058 22.2269 7.13363C22.2089 7.16496 22.1804 7.21629 22.174 7.22769C22.1611 7.2505 22.1562 7.25832 22.1549 7.26034L23.8332 8.34502C23.8676 8.29196 23.8958 8.24278 23.9154 8.20806C23.9249 8.19121 23.9351 8.17295 23.9417 8.1611C23.9493 8.14753 23.9548 8.13778 23.9596 8.12937C23.9819 8.09068 23.9714 8.11544 23.9363 8.15305L22.4761 6.78899ZM22.4732 30.7569C22.9367 31.5625 23.7913 32.0252 24.6896 32.0251L24.693 30.0251C24.4773 30.0252 24.2988 29.9164 24.2072 29.7572L22.4732 30.7569ZM15.9992 32.0261C16.8113 32.026 17.5782 31.5992 17.9905 30.8739L16.2522 29.888C16.2067 29.968 16.1161 30.0261 16.0026 30.0261L15.9992 32.0261Z" fill="url(#paint0_linear)" mask="url(#path-2-inside-1)"/>
<defs>
<linearGradient id="paint0_linear" x1="20.3207" y1="7.31152" x2="20.3207" y2="32.0265" gradientUnits="userSpaceOnUse">
<stop stop-color="#B727F3"/>
<stop offset="1" stop-color="#DB4CAA"/>
</linearGradient>
</defs>
</svg>
